<svg width="18" height="18" viewBox="0 0 18 18" fill="none" xmlns="http://www.w3.org/2000/svg">
<g clip-path="url(#clip0_948_790)">
<path fill-rule="evenodd" clip-rule="evenodd" d="M8.87398 5.33893C7.7445 5.33893 6.8087 6.44533 6.8087 7.83773C6.8087 9.23018 7.7445 10.3365 8.87398 10.3365C10.0035 10.3365 10.9392 9.23018 10.9392 7.83773C10.9392 6.44533 10.0035 5.33893 8.87398 5.33893ZM6.65186 7.83773C6.65186 6.38103 7.63558 5.17773 8.87398 5.17773C10.1123 5.17773 11.0961 6.38103 11.0961 7.83773C11.0961 9.29443 10.1123 10.4977 8.87398 10.4977C7.63558 10.4977 6.65186 9.29443 6.65186 7.83773Z" fill="#17A300" stroke="#17A300" stroke-miterlimit="10"/>
<path fill-rule="evenodd" clip-rule="evenodd" d="M8.83619 10.5772C8.06618 10.5772 7.30955 10.7918 6.64243 11.1995C5.97526 11.6072 5.42096 12.1938 5.03552 12.9005C5.01436 12.9393 4.96653 12.9531 4.92878 12.9314C4.89098 12.9096 4.87751 12.8605 4.89872 12.8217C5.29739 12.0906 5.87106 11.4833 6.56226 11.0609C7.25346 10.6385 8.03772 10.416 8.83619 10.416C9.63466 10.416 10.419 10.6385 11.1102 11.0609C11.8013 11.4833 12.375 12.0906 12.7737 12.8217C12.7949 12.8605 12.7814 12.9096 12.7437 12.9314C12.7059 12.9531 12.658 12.9393 12.6369 12.9005C12.2514 12.1938 11.6972 11.6072 11.03 11.1995C10.3628 10.7918 9.60625 10.5772 8.83619 10.5772Z" fill="#17A300" stroke="#17A300" stroke-linecap="round" stroke-linejoin="round"/>
<path fill-rule="evenodd" clip-rule="evenodd" d="M10.0628 9.21019C8.56054 9.03306 7.08754 9.2755 5.35054 9.94619C4.63135 10.2239 3.86689 10.5749 3.0363 11L3 10.8549C3.83254 10.4288 4.59981 10.0763 5.32244 9.79728C7.06862 9.12313 8.55434 8.87762 10.0717 9.05652C11.5885 9.23542 13.1341 9.8382 15 10.8554L14.9616 10.9995C13.1006 9.98496 11.5656 9.38748 10.0628 9.21019Z" fill="#17A300" stroke="#17A300" stroke-width="0.3"/>
<path d="M5.3256 9.85889C4.60241 10.1598 3.83416 10.5399 3 11H15C11.2614 8.804 8.81966 8.40528 5.3256 9.85889Z" fill="#17A300" fill-opacity="0.4"/>
<path d="M9.24359 2.99381L14.3494 5.79941C14.5909 5.93211 14.7414 6.18976 14.7414 6.46991V11.9588C14.7414 12.2389 14.5909 12.4966 14.3494 12.6293L9.24359 15.4349C9.02365 15.5557 8.75905 15.5557 8.53906 15.4349L3.4333 12.6293C3.1918 12.4966 3.04132 12.2389 3.04132 11.9588V6.46991C3.04132 6.18976 3.1918 5.93211 3.4333 5.79941L8.53906 2.99381C8.75905 2.87294 9.02365 2.87294 9.24359 2.99381ZM9.38973 2.71421C9.07848 2.54318 8.70418 2.54318 8.39292 2.71421L3.28716 5.51981C2.94536 5.70766 2.73193 6.07261 2.73193 6.46991V11.9588C2.73193 12.3561 2.94536 12.721 3.28716 12.9089L8.39292 15.7145C8.70418 15.8855 9.07848 15.8855 9.38973 15.7145L14.4955 12.9089C14.8373 12.721 15.0507 12.3561 15.0507 11.9588V6.46991C15.0507 6.07261 14.8373 5.70766 14.4955 5.51981L9.38973 2.71421Z" fill="#17A300" stroke="#17A300"/>
<path d="M0.486547 12.3176H0.413574V12.3926V15.6518C0.413574 16.8608 1.36718 17.8409 2.5435 17.8409H5.77179H5.84476V17.7659V17.6485V17.5735H5.77179H2.5435C1.51089 17.5735 0.673796 16.7131 0.673796 15.6518V12.3926V12.3176H0.600823H0.486547ZM0.413574 5.87413V5.94913H0.486547H0.600823H0.673796V5.87413V2.61488C0.673796 1.55358 1.51089 0.693231 2.5435 0.693231H5.77179H5.84476V0.618231V0.500781V0.425781H5.77179H2.5435C1.36718 0.425781 0.413574 1.40588 0.413574 2.61488V5.87413ZM12.2283 0.425781H12.1554V0.500781V0.618231V0.693231H12.2283H15.4566C16.4892 0.693231 17.3263 1.55358 17.3263 2.61488V5.87413V5.94913H17.3993H17.5136H17.5865V5.87413V2.61488C17.5865 1.40588 16.6329 0.425781 15.4566 0.425781H12.2283ZM17.5865 12.3926V12.3176H17.5136H17.3993H17.3263V12.3926V15.6518C17.3263 16.7131 16.4892 17.5735 15.4566 17.5735H12.2283H12.1554V17.6485V17.7659V17.8409H12.2283H15.4566C16.6329 17.8409 17.5865 16.8608 17.5865 15.6518V12.3926Z" fill="#17A300" stroke="#17A300"/>
</g>
<defs>
<clipPath id="clip0_948_790">
<rect width="18" height="18" fill="white"/>
</clipPath>
</defs>
</svg>
